<svg width="123" height="98" viewBox="0 0 123 98" fill="none" xmlns="http://www.w3.org/2000/svg">
<path d="M33.1523 25.0927C43.838 14.4525 61.5961 14.4525 72.2817 25.0927C81.8911 34.663 83.3133 49.9181 75.4144 60.924L75.203 61.2302C73.2234 63.9673 69.3797 64.6181 66.6314 62.6466C63.8639 60.6752 63.2105 56.847 65.19 54.1099L65.4014 53.8037C69.8025 47.6595 69.1106 39.2568 63.7486 33.9166C57.7139 27.9064 47.8931 27.9064 41.8392 33.9166L20.2758 55.4115C14.22 61.2685 14.22 71.2025 20.2758 77.2318C25.6186 82.572 34.0749 83.2611 40.2248 78.8779L40.5323 78.4951C43.2999 76.6959 47.1436 77.3275 49.1039 80.0837C51.0834 82.84 50.4492 86.6681 47.6817 88.6396L47.3742 88.8502C36.1505 96.7169 21.1791 95.4537 11.5716 85.9025C0.71897 75.088 0.71897 57.5552 11.5716 46.7599L33.1523 25.0927ZM89.8477 72.7337C78.9891 83.5482 61.4039 83.5482 50.5453 72.7337C40.9359 63.1634 39.6867 48.0806 47.5856 37.0748L47.797 36.7685C49.6036 34.0314 53.4473 33.3806 56.3686 35.3521C59.1361 37.1513 59.7895 40.9795 57.81 43.8888L57.5986 44.1951C53.1975 50.1669 53.8894 58.7419 59.2514 64.0822C65.2861 70.0923 75.1069 70.0923 81.1608 64.0822L102.724 42.5873C108.778 36.558 108.778 26.624 102.724 20.7669C97.3814 15.4325 88.9252 14.7357 82.7752 19.1209L82.4677 19.3314C79.7002 21.3029 75.8564 20.499 73.8961 17.9112C71.9166 15.1587 72.5508 11.3325 75.3183 9.36679L75.6258 9.15242C86.6766 1.28773 101.821 2.5355 111.43 12.1039C122.289 22.9107 122.289 40.4435 111.43 51.2388L89.8477 72.7337Z" fill="#DF2E31"/>
</svg>
