<svg width="257" height="292" viewBox="0 0 257 292" fill="none" xmlns="http://www.w3.org/2000/svg">
<path d="M2.5 210.442V74.7527L131.045 2.87811L254.5 74.7239V210.471L131.044 289.053L2.5 210.442Z" stroke="url(#paint0_linear_990_16)" stroke-width="5"/>
<path d="M26 88.2275L130.55 30L231 88.2275V198.314L130.55 262L26 198.314V88.2275Z" fill="url(#paint1_linear_990_16)" fill-opacity="0.95"/>
<g clip-path="url(#clip0_990_16)">
<path d="M91.6042 89.0117H170.396C182.342 89.0117 192 98.2662 192 109.713V182.287C192 193.734 182.342 202.988 170.396 202.988H91.6042C79.6583 202.988 70 193.734 70 182.287V109.713C70 98.2662 79.6583 89.0117 91.6042 89.0117Z" fill="#800C0C"/>
<path d="M126.55 157.205H108.415L104.71 168.651C104.613 169.089 104.223 169.382 103.784 169.333H94.619C94.0827 169.333 93.9365 169.041 94.0827 168.456L109.78 123.304C109.926 122.817 110.073 122.281 110.268 121.697C110.463 120.674 110.56 119.602 110.56 118.531C110.511 118.287 110.706 118.043 110.95 117.995H123.576C123.966 117.995 124.161 118.141 124.21 118.384L142.004 168.554C142.15 169.089 142.004 169.333 141.516 169.333H131.328C130.986 169.382 130.645 169.138 130.548 168.797L126.55 157.205ZM111.243 147.317H123.625C123.333 146.294 122.943 145.076 122.504 143.81C122.065 142.495 121.626 141.082 121.188 139.621C120.7 138.111 120.261 136.65 119.774 135.14C119.286 133.63 118.848 132.217 118.458 130.805C118.068 129.441 117.726 128.175 117.385 127.006H117.288C116.849 129.1 116.313 131.195 115.63 133.289C114.899 135.627 114.168 138.062 113.388 140.498C112.705 142.982 111.974 145.271 111.243 147.317ZM152.875 126.519C151.266 126.567 149.706 125.934 148.536 124.814C147.415 123.596 146.83 121.989 146.879 120.333C146.83 118.677 147.464 117.118 148.634 115.998C149.804 114.877 151.364 114.293 152.973 114.293C154.874 114.293 156.336 114.877 157.409 115.998C158.481 117.167 159.066 118.725 159.018 120.333C159.066 121.989 158.481 123.596 157.311 124.814C156.19 125.983 154.533 126.616 152.875 126.519ZM147.415 168.797V131.292C147.415 130.805 147.61 130.61 148.049 130.61H157.701C158.14 130.61 158.335 130.854 158.335 131.292V168.797C158.335 169.333 158.14 169.576 157.701 169.576H148.146C147.659 169.576 147.415 169.284 147.415 168.797Z" fill="#DF2E31"/>
</g>
<defs>
<linearGradient id="paint0_linear_990_16" x1="0" y1="0" x2="263.128" y2="286.369" gradientUnits="userSpaceOnUse">
<stop stop-color="#DF2E31"/>
<stop offset="1" stop-color="#800C0C"/>
</linearGradient>
<linearGradient id="paint1_linear_990_16" x1="60.9763" y1="96.9231" x2="205.701" y2="196.777" gradientUnits="userSpaceOnUse">
<stop stop-color="#DF2E31" stop-opacity="0.4"/>
<stop offset="1" stop-color="#DF2E31" stop-opacity="0.15"/>
</linearGradient>
<clipPath id="clip0_990_16">
<rect width="117" height="114" fill="white" transform="translate(70 89)"/>
</clipPath>
</defs>
</svg>
