<svg width="257" height="292" viewBox="0 0 257 292" fill="none" xmlns="http://www.w3.org/2000/svg">
<path d="M2.5 210.442V74.7527L131.045 2.87811L254.5 74.7239V210.471L131.044 289.053L2.5 210.442Z" stroke="url(#paint0_linear_977_33)" stroke-width="5"/>
<path d="M26 88.2275L130.55 30L231 88.2275V198.314L130.55 262L26 198.314V88.2275Z" fill="url(#paint1_linear_977_33)" fill-opacity="0.95"/>
<path d="M128.5 216.869C126.6 216.869 124.673 216.359 123 215.396L105.509 205.059C102.901 203.586 104.177 203.077 105.027 202.793C108.514 201.576 109.223 201.321 112.937 199.197C113.333 198.97 113.844 199.055 114.241 199.31L127.678 207.268C128.16 207.551 128.84 207.551 129.294 207.268L181.653 177.079C182.135 176.795 182.446 176.229 182.446 175.663V115.284C182.446 114.689 182.135 114.151 181.624 113.839L129.294 83.6782C128.812 83.395 128.16 83.395 127.678 83.6782L75.3752 113.868C74.865 114.151 74.5532 114.717 74.5532 115.312V175.663C74.5532 176.229 74.865 176.795 75.3752 177.05L89.7194 185.32C97.5152 189.2 102.278 184.64 102.278 180.024V120.438C102.278 119.588 102.958 118.937 103.808 118.937H110.442C111.264 118.937 111.973 119.588 111.973 120.438V180.052C111.973 190.417 106.303 196.365 96.4663 196.365C93.4331 196.365 91.0518 196.365 84.4183 193.08L70.6978 185.178C67.296 183.224 65.1982 179.571 65.1982 175.634V115.284C65.1982 111.375 67.296 107.694 70.6978 105.74L123 75.5503C126.317 73.6812 130.711 73.6812 133.999 75.5503L186.358 105.768C189.76 107.722 191.858 111.375 191.858 115.312V175.663C191.858 179.571 189.76 183.224 186.358 185.207L133.999 215.396C132.327 216.359 130.427 216.869 128.5 216.869ZM170.767 157.368C170.767 146.068 163.113 143.066 147.04 140.942C130.768 138.79 129.123 137.685 129.123 133.89C129.123 130.747 130.513 126.555 142.561 126.555C153.304 126.555 157.273 128.877 158.917 136.127C159.059 136.807 159.683 137.317 160.392 137.317H167.195C167.62 137.317 168.017 137.147 168.301 136.835C168.584 136.524 168.726 136.099 168.698 135.674C167.649 123.185 159.343 117.379 142.561 117.379C127.621 117.379 118.72 123.667 118.72 134.23C118.72 145.671 127.593 148.843 141.908 150.259C159.059 151.93 160.392 154.451 160.392 157.821C160.392 163.655 155.686 166.147 144.658 166.147C130.796 166.147 127.763 162.664 126.742 155.782C126.629 155.045 126.005 154.507 125.24 154.507H118.465C117.614 154.507 116.962 155.187 116.962 156.008C116.962 164.816 121.753 175.323 144.687 175.323C161.242 175.294 170.767 168.752 170.767 157.368Z" fill="#DF2E31"/>
<defs>
<linearGradient id="paint0_linear_977_33" x1="0" y1="0" x2="263.128" y2="286.369" gradientUnits="userSpaceOnUse">
<stop stop-color="#DF2E31"/>
<stop offset="1" stop-color="#800C0C"/>
</linearGradient>
<linearGradient id="paint1_linear_977_33" x1="60.9763" y1="96.9231" x2="205.701" y2="196.777" gradientUnits="userSpaceOnUse">
<stop stop-color="#DF2E31" stop-opacity="0.4"/>
<stop offset="1" stop-color="#DF2E31" stop-opacity="0.15"/>
</linearGradient>
</defs>
</svg>
