<svg width="257" height="292" viewBox="0 0 257 292" fill="none" xmlns="http://www.w3.org/2000/svg">
<path d="M2.5 210.442V74.7527L131.045 2.87811L254.5 74.7239V210.471L131.044 289.053L2.5 210.442Z" stroke="url(#paint0_linear_989_11)" stroke-width="5"/>
<path d="M26 88.2275L130.55 30L231 88.2275V198.314L130.55 262L26 198.314V88.2275Z" fill="url(#paint1_linear_989_11)" fill-opacity="0.95"/>
<g clip-path="url(#clip0_989_11)">
<path d="M89.6042 87.0117H168.396C180.342 87.0117 190 96.5909 190 108.439V183.56C190 195.408 180.342 204.987 168.396 204.987H89.6042C77.6583 204.987 68 195.408 68 183.56V108.439C68 96.5909 77.6583 87.0117 89.6042 87.0117Z" fill="#DF2E31"/>
<path d="M95.4502 169.748V117.869C95.4502 117.516 95.6027 117.314 95.9585 117.314C96.8227 117.314 97.636 117.314 98.8052 117.264C100.025 117.213 101.296 117.213 102.669 117.163C104.041 117.113 105.515 117.113 107.091 117.062C108.667 117.012 110.192 117.012 111.717 117.012C115.885 117.012 119.342 117.516 122.189 118.575C124.73 119.432 127.069 120.843 129 122.709C130.627 124.322 131.898 126.288 132.711 128.456C133.474 130.574 133.88 132.742 133.88 135.011C133.88 139.346 132.864 142.926 130.83 145.749C128.797 148.573 125.95 150.69 122.646 151.9C119.189 153.161 115.377 153.614 111.209 153.614C109.989 153.614 109.175 153.614 108.667 153.564C108.159 153.514 107.447 153.514 106.481 153.514V169.697C106.532 170.05 106.278 170.353 105.922 170.403H96.0602C95.6535 170.403 95.4502 170.202 95.4502 169.748ZM106.532 127.045V143.985C107.244 144.035 107.904 144.086 108.514 144.086H111.209C113.191 144.086 115.174 143.783 117.054 143.178C118.681 142.724 120.104 141.766 121.223 140.506C122.29 139.246 122.799 137.531 122.799 135.313C122.849 133.75 122.443 132.187 121.629 130.826C120.765 129.515 119.545 128.507 118.071 127.952C116.19 127.196 114.157 126.893 112.073 126.944C110.751 126.944 109.582 126.944 108.616 126.994C107.599 126.944 106.888 126.994 106.532 127.045ZM165.6 140.909C164.075 140.103 162.449 139.548 160.72 139.195C158.839 138.792 156.959 138.54 155.027 138.54C154.01 138.489 152.943 138.641 151.977 138.893C151.316 139.044 150.757 139.397 150.401 139.901C150.147 140.304 149.994 140.809 149.994 141.262C149.994 141.716 150.198 142.17 150.503 142.573C150.96 143.128 151.57 143.581 152.231 143.934C153.4 144.539 154.62 145.094 155.84 145.598C158.585 146.506 161.229 147.766 163.669 149.279C165.346 150.337 166.719 151.749 167.684 153.463C168.498 155.077 168.904 156.841 168.854 158.656C168.904 161.026 168.193 163.395 166.871 165.362C165.448 167.378 163.465 168.941 161.178 169.849C158.687 170.907 155.637 171.462 151.977 171.462C149.639 171.462 147.351 171.26 145.064 170.807C143.284 170.504 141.505 169.95 139.879 169.193C139.523 168.992 139.269 168.639 139.319 168.235V159.463C139.319 159.312 139.37 159.11 139.523 159.009C139.675 158.908 139.828 158.959 139.98 159.059C141.963 160.219 144.047 161.026 146.284 161.53C148.215 162.034 150.249 162.286 152.282 162.286C154.214 162.286 155.586 162.034 156.501 161.58C157.314 161.227 157.874 160.37 157.874 159.463C157.874 158.757 157.467 158.102 156.654 157.446C155.84 156.791 154.163 156.034 151.672 155.077C149.079 154.169 146.69 152.959 144.454 151.447C142.878 150.337 141.556 148.875 140.59 147.161C139.777 145.548 139.37 143.783 139.421 142.019C139.421 139.851 140.031 137.784 141.149 135.918C142.42 133.901 144.301 132.288 146.487 131.28C148.876 130.07 151.875 129.515 155.484 129.515C157.569 129.515 159.704 129.666 161.788 129.969C163.313 130.171 164.787 130.574 166.159 131.128C166.363 131.179 166.566 131.381 166.668 131.582C166.719 131.784 166.769 131.986 166.769 132.187V140.405C166.769 140.607 166.668 140.809 166.515 140.909C166.058 141.01 165.804 141.01 165.6 140.909Z" fill="#800C0C"/>
</g>
<defs>
<linearGradient id="paint0_linear_989_11" x1="0" y1="0" x2="263.128" y2="286.369" gradientUnits="userSpaceOnUse">
<stop stop-color="#DF2E31"/>
<stop offset="1" stop-color="#800C0C"/>
</linearGradient>
<linearGradient id="paint1_linear_989_11" x1="60.9763" y1="96.9231" x2="205.701" y2="196.777" gradientUnits="userSpaceOnUse">
<stop stop-color="#DF2E31" stop-opacity="0.4"/>
<stop offset="1" stop-color="#DF2E31" stop-opacity="0.15"/>
</linearGradient>
<clipPath id="clip0_989_11">
<rect width="122" height="118" fill="white" transform="translate(68 87)"/>
</clipPath>
</defs>
</svg>
