<svg width="257" height="292" viewBox="0 0 257 292" fill="none" xmlns="http://www.w3.org/2000/svg">
<path d="M2.5 210.442V74.7527L131.045 2.87811L254.5 74.7239V210.471L131.044 289.053L2.5 210.442Z" stroke="url(#paint0_linear_977_17)" stroke-width="5"/>
<path d="M26 88.2275L130.55 30L231 88.2275V198.314L130.55 262L26 198.314V88.2275Z" fill="url(#paint1_linear_977_17)" fill-opacity="0.95"/>
<path d="M168.916 126.609C167.588 126.166 166.259 125.747 164.93 125.354C165.151 124.443 165.348 123.532 165.545 122.622C168.572 107.955 166.579 96.1668 159.86 92.2786C153.388 88.5625 142.83 92.4262 132.15 101.729C131.092 102.639 130.058 103.599 129.074 104.559C128.409 103.919 127.72 103.279 127.031 102.664C115.834 92.7215 104.612 88.5379 97.8938 92.4508C91.4461 96.1915 89.5266 107.29 92.2336 121.17C92.5043 122.548 92.7996 123.902 93.1441 125.28C91.5691 125.723 90.0187 126.215 88.5668 126.732C75.4254 131.284 66 138.47 66 145.902C66 153.581 76.0406 161.283 89.6988 165.959C90.8063 166.328 91.9137 166.697 93.0457 167.017C92.6766 168.494 92.3566 169.946 92.0613 171.447C89.4773 185.105 91.4953 195.933 97.943 199.649C104.588 203.488 115.76 199.551 126.637 190.027C127.499 189.264 128.36 188.477 129.221 187.64C130.304 188.698 131.436 189.707 132.568 190.691C143.101 199.748 153.511 203.414 159.934 199.698C166.579 195.859 168.744 184.219 165.939 170.044C165.717 168.961 165.471 167.854 165.2 166.722C165.988 166.5 166.751 166.254 167.514 166.008C181.713 161.308 192 153.704 192 145.902C192 138.446 182.304 131.211 168.916 126.609ZM135.62 105.715C144.775 97.7418 153.314 94.6165 157.202 96.8559C161.361 99.243 162.961 108.89 160.352 121.564C160.18 122.4 160.008 123.213 159.786 124.025C154.323 122.794 148.786 121.908 143.224 121.416C140.025 116.839 136.53 112.458 132.741 108.348C133.7 107.438 134.636 106.577 135.62 105.715ZM107.147 158.675C108.402 160.816 109.682 162.957 111.035 165.048C107.196 164.63 103.382 164.015 99.6164 163.203C100.699 159.659 102.053 155.992 103.628 152.252C104.76 154.417 105.916 156.558 107.147 158.675ZM99.6902 129.07C103.234 128.282 106.999 127.642 110.912 127.15C109.608 129.193 108.328 131.284 107.122 133.401C105.916 135.493 104.735 137.634 103.628 139.799C102.077 136.132 100.773 132.539 99.6902 129.07ZM106.433 146.025C108.057 142.629 109.829 139.307 111.7 136.034C113.57 132.761 115.588 129.586 117.704 126.461C121.396 126.19 125.161 126.043 129 126.043C132.839 126.043 136.629 126.19 140.296 126.461C142.387 129.562 144.381 132.736 146.276 135.985C148.171 139.233 149.943 142.556 151.616 145.927C149.967 149.323 148.195 152.67 146.3 155.968C144.43 159.241 142.437 162.415 140.345 165.565C136.678 165.836 132.864 165.959 129 165.959C125.136 165.959 121.396 165.836 117.778 165.614C115.637 162.489 113.619 159.29 111.724 156.017C109.829 152.744 108.082 149.422 106.433 146.025ZM150.878 158.625C152.133 156.46 153.314 154.27 154.471 152.055C156.046 155.623 157.424 159.241 158.63 162.957C154.815 163.818 150.952 164.482 147.063 164.925C148.392 162.858 149.647 160.742 150.878 158.625ZM154.421 139.799C153.265 137.634 152.084 135.468 150.853 133.352C149.647 131.26 148.392 129.193 147.088 127.15C151.05 127.642 154.84 128.307 158.384 129.119C157.252 132.761 155.923 136.305 154.421 139.799ZM129.049 112.114C131.633 114.919 134.07 117.872 136.334 120.924C131.461 120.702 126.564 120.702 121.691 120.924C124.103 117.749 126.588 114.796 129.049 112.114ZM100.502 97.0282C104.637 94.6165 113.816 98.0618 123.488 106.626C124.103 107.167 124.718 107.758 125.358 108.348C121.543 112.458 118.024 116.839 114.8 121.416C109.239 121.908 103.726 122.77 98.2629 123.975C97.943 122.72 97.6723 121.441 97.4016 120.161C95.0883 108.25 96.6141 99.2676 100.502 97.0282ZM94.473 161.898C93.4395 161.603 92.4305 161.283 91.4215 160.939C86.1797 159.29 80.2242 156.681 75.9176 153.261C73.432 151.538 71.7586 148.88 71.291 145.902C71.291 141.399 79.0676 135.64 90.2895 131.727C91.6922 131.235 93.1195 130.792 94.5469 130.374C96.2203 135.714 98.2383 140.956 100.576 146.025C98.2137 151.169 96.1711 156.484 94.473 161.898ZM123.168 186.016C119.107 189.732 114.407 192.685 109.288 194.703C106.556 196.007 103.406 196.13 100.601 195.023C96.6879 192.759 95.0637 184.072 97.2785 172.382C97.5492 171.004 97.8445 169.626 98.1891 168.272C103.702 169.454 109.263 170.266 114.899 170.684C118.147 175.286 121.716 179.691 125.53 183.825C124.743 184.588 123.955 185.327 123.168 186.016ZM129.197 180.036C126.687 177.329 124.177 174.326 121.74 171.102C124.103 171.201 126.539 171.25 129 171.25C131.535 171.25 134.02 171.201 136.481 171.078C134.217 174.203 131.781 177.181 129.197 180.036ZM161.361 187.418C161.14 190.421 159.663 193.226 157.301 195.121C153.388 197.385 145.045 194.432 136.038 186.705C135.005 185.819 133.971 184.859 132.913 183.875C136.678 179.716 140.148 175.311 143.298 170.684C148.934 170.216 154.545 169.355 160.082 168.1C160.328 169.109 160.549 170.118 160.746 171.102C161.952 176.418 162.149 181.955 161.361 187.418ZM165.84 160.963C165.151 161.185 164.462 161.406 163.748 161.603C162.026 156.238 159.909 150.997 157.473 145.902C159.836 140.882 161.829 135.714 163.502 130.423C164.782 130.792 166.013 131.186 167.194 131.58C178.662 135.517 186.709 141.374 186.709 145.853C186.709 150.677 178.12 156.903 165.84 160.963ZM129 157.272C135.226 157.272 140.271 152.227 140.271 146.001C140.271 139.775 135.226 134.73 129 134.73C122.774 134.73 117.729 139.775 117.729 146.001C117.729 152.227 122.774 157.272 129 157.272Z" fill="#DF2E31"/>
<defs>
<linearGradient id="paint0_linear_977_17" x1="0" y1="0" x2="263.128" y2="286.369" gradientUnits="userSpaceOnUse">
<stop stop-color="#DF2E31"/>
<stop offset="1" stop-color="#800C0C"/>
</linearGradient>
<linearGradient id="paint1_linear_977_17" x1="60.9763" y1="96.9231" x2="205.701" y2="196.777" gradientUnits="userSpaceOnUse">
<stop stop-color="#DF2E31" stop-opacity="0.4"/>
<stop offset="1" stop-color="#DF2E31" stop-opacity="0.15"/>
</linearGradient>
</defs>
</svg>
