<svg width="257" height="292" viewBox="0 0 257 292" fill="none" xmlns="http://www.w3.org/2000/svg">
<path d="M2.5 210.442V74.7527L131.045 2.87811L254.5 74.7239V210.471L131.044 289.053L2.5 210.442Z" stroke="url(#paint0_linear_977_29)" stroke-width="5"/>
<path d="M26 88.2275L130.55 30L231 88.2275V198.314L130.55 262L26 198.314V88.2275Z" fill="url(#paint1_linear_977_29)" fill-opacity="0.95"/>
<path d="M130.329 174.328C130.26 174.467 130.191 174.577 130.329 174.328V174.328ZM187.551 154.277C182.931 154.276 178.373 155.34 174.229 157.389C172.874 154.646 171.473 152.249 171.243 150.452C170.968 148.354 170.669 147.11 170.991 144.621C171.312 142.132 172.759 138.606 172.736 138.352C172.713 138.099 172.415 136.831 169.452 136.808C166.489 136.785 163.939 137.384 163.643 138.168C163.12 139.6 162.713 141.072 162.426 142.57C161.897 145.266 156.502 154.9 153.447 159.924C152.436 157.965 151.587 156.236 151.403 154.854C151.127 152.756 150.829 151.512 151.15 149.023C151.472 146.534 152.919 143.008 152.896 142.754C152.873 142.5 152.574 141.233 149.614 141.21C146.653 141.187 144.101 141.786 143.803 142.57C143.504 143.353 143.182 145.197 142.585 146.972C141.988 148.746 134.801 164.787 132.92 168.958C131.955 171.079 131.128 172.784 130.531 173.936C130.439 174.121 130.37 174.236 130.324 174.328C130.393 174.213 130.439 174.098 130.439 174.144C129.934 175.135 129.635 175.688 129.635 175.688V175.711C129.245 176.449 128.809 177.117 128.602 177.117C128.464 177.117 128.165 175.181 128.671 172.531C129.75 166.953 132.3 158.288 132.277 157.988C132.254 157.827 132.759 156.329 130.6 155.522C128.51 154.761 127.752 156.029 127.568 156.029C127.384 156.029 127.247 156.49 127.247 156.49C127.247 156.49 129.566 146.718 122.793 146.718C118.567 146.718 112.687 151.374 109.797 155.591C107.983 156.582 104.055 158.725 99.9207 161.007C98.3359 161.883 96.7051 162.782 95.1662 163.634C95.0513 163.519 94.9595 163.404 94.8446 163.289C86.6241 154.485 71.4463 148.262 72.0895 136.439C72.3192 132.129 73.8121 120.813 101.276 107.077C123.785 95.8306 141.781 98.9189 144.88 105.787C149.336 115.582 135.258 133.812 111.883 136.439C102.973 137.43 98.2899 133.973 97.1185 132.683C95.9012 131.323 95.7174 131.254 95.258 131.507C94.5001 131.922 94.9824 133.12 95.258 133.835C95.9471 135.656 98.8182 138.882 103.708 140.495C108.003 141.901 118.45 142.685 131.08 137.776C145.27 132.291 156.316 117.011 153.077 104.22C149.779 91.2212 128.299 86.9575 107.987 94.1943C95.8851 98.504 82.7975 105.28 73.3826 114.107C62.1991 124.616 60.4099 133.766 61.1449 137.592C63.761 151.166 82.407 160.016 89.8696 166.561C89.5021 166.769 89.1576 166.953 88.836 167.138C85.0944 169.004 70.879 176.472 67.3212 184.354C63.3016 193.296 67.9873 199.703 71.0628 200.579C80.6614 203.252 90.4897 198.435 95.7703 190.53C101.051 182.625 100.41 172.3 97.9753 167.599C97.9523 167.529 97.9063 167.483 97.8834 167.414C98.8481 166.838 99.8357 166.262 100.823 165.686C102.727 164.556 104.588 163.519 106.219 162.62C105.3 165.109 104.634 168.106 104.289 172.438C103.876 177.509 105.966 184.077 108.676 186.658C109.871 187.788 111.316 187.811 112.211 187.811C115.381 187.811 116.805 185.183 118.388 182.049C120.34 178.223 122.063 173.775 122.063 173.775C122.063 173.775 119.904 185.806 125.806 185.806C127.963 185.806 130.122 183.017 131.089 181.588V181.611C131.089 181.611 131.135 181.519 131.25 181.334C131.48 180.989 131.595 180.781 131.595 180.781V180.712C132.467 179.214 134.374 175.78 137.243 170.111C140.964 162.782 144.521 153.632 144.521 153.632C144.865 155.643 145.341 157.63 145.945 159.578C146.589 161.768 147.944 164.165 149.023 166.492C148.15 167.691 147.622 168.382 147.622 168.382C147.624 168.4 147.632 168.416 147.645 168.428C146.956 169.35 146.175 170.341 145.371 171.309C142.434 174.812 138.94 178.822 138.481 179.975C137.929 181.334 138.067 182.349 139.124 183.132C139.905 183.731 141.283 183.824 142.728 183.708C145.369 183.524 147.229 182.879 148.125 182.464C149.777 181.87 151.337 181.047 152.763 180.021C155.634 177.9 157.379 174.858 157.219 170.848C157.127 168.636 156.415 166.423 155.542 164.349C155.794 163.98 156.07 163.588 156.323 163.197C160.868 156.536 164.383 149.226 164.383 149.226C164.726 151.237 165.202 153.223 165.807 155.172C166.358 157.038 167.435 159.09 168.423 161.095C164.153 164.575 161.511 168.608 160.593 171.258C158.893 176.167 160.225 178.38 162.729 178.887C163.854 179.117 165.462 178.587 166.656 178.08C168.43 177.487 170.103 176.625 171.615 175.522C174.486 173.402 177.263 170.429 177.08 166.396C177.011 164.575 176.505 162.754 175.839 161.003C179.445 159.481 184.129 158.652 190.101 159.343C202.89 160.841 205.393 168.862 204.911 172.203C204.429 175.545 201.741 177.412 200.845 177.965C199.95 178.518 199.674 178.726 199.743 179.14C199.858 179.74 200.271 179.717 201.029 179.578C202.086 179.394 207.734 176.859 207.986 170.659C208.354 162.823 200.845 154.204 187.544 154.273L187.551 154.277ZM88.9738 187.626C84.7498 192.259 78.8239 194.01 76.2767 192.535C73.5434 190.94 74.6229 184.123 79.8345 179.187C83.0042 176.19 87.0904 173.425 89.8007 171.719C90.4208 171.351 91.3166 170.797 92.4191 170.129C92.6029 170.014 92.6947 169.968 92.6947 169.968C92.9015 169.829 93.1311 169.714 93.3608 169.576C95.2649 176.582 93.4297 182.759 88.9738 187.622V187.626ZM119.835 166.561C118.365 170.18 115.266 179.399 113.383 178.915C111.775 178.5 110.787 171.47 113.061 164.556C114.21 161.076 116.644 156.928 118.091 155.315C120.409 152.71 122.958 151.881 123.556 152.918C124.359 154.277 120.753 164.303 119.835 166.561ZM145.33 178.776C144.71 179.099 144.136 179.306 143.86 179.145C143.653 179.03 144.113 178.592 144.113 178.592C144.113 178.592 147.305 175.158 148.569 173.591C149.304 172.669 150.153 171.586 151.07 170.387C151.07 170.502 151.093 170.618 151.093 170.756C151.063 174.881 147.115 177.67 145.323 178.776H145.33ZM164.987 174.282C164.527 173.959 164.596 172.876 166.135 169.511C166.732 168.198 168.108 165.985 170.499 163.865C170.77 164.668 170.917 165.507 170.936 166.354C170.913 171.54 167.215 173.475 164.989 174.282H164.987Z" fill="#DF2E31"/>
<defs>
<linearGradient id="paint0_linear_977_29" x1="0" y1="0" x2="263.128" y2="286.369" gradientUnits="userSpaceOnUse">
<stop stop-color="#DF2E31"/>
<stop offset="1" stop-color="#800C0C"/>
</linearGradient>
<linearGradient id="paint1_linear_977_29" x1="60.9763" y1="96.9231" x2="205.701" y2="196.777" gradientUnits="userSpaceOnUse">
<stop stop-color="#DF2E31" stop-opacity="0.4"/>
<stop offset="1" stop-color="#DF2E31" stop-opacity="0.15"/>
</linearGradient>
</defs>
</svg>
