<svg width="257" height="292" viewBox="0 0 257 292" fill="none" xmlns="http://www.w3.org/2000/svg">
<path d="M131.045 2.87811L254.5 74.7239V210.471L131.044 289.053L2.5 210.442V74.7527L131.045 2.87811Z" stroke="url(#paint0_linear_1134_336)" stroke-width="5"/>
<path d="M26 88.2275L130.55 30L231 88.2275V198.314L130.55 262L26 198.314V88.2275Z" fill="url(#paint1_linear_1134_336)" fill-opacity="0.95"/>
<path d="M177.179 117.939C170.907 117.939 165.107 115.844 160.468 112.324C155.141 108.285 151.296 102.345 149.943 95.5198C149.599 93.8351 149.427 92.0857 149.406 90.293H131.47V139.559L131.449 166.536C131.449 173.75 126.766 179.863 120.301 182.022C118.411 182.649 116.391 182.951 114.286 182.822C111.58 182.67 109.067 181.85 106.854 180.532C102.172 177.724 99.0144 172.627 98.9285 166.774C98.7996 157.659 106.124 150.208 115.189 150.208C116.971 150.208 118.69 150.51 120.301 151.028V137.572V132.756C118.604 132.497 116.886 132.367 115.124 132.367C105.201 132.367 95.9213 136.514 89.2841 143.987C84.2793 149.624 81.2722 156.838 80.7996 164.398C80.1982 174.312 83.8068 183.75 90.8091 190.705C91.8402 191.72 92.9142 192.671 94.0526 193.556C100.045 198.2 107.391 200.727 115.124 200.727C116.864 200.727 118.604 200.597 120.301 200.338C127.518 199.258 134.177 195.932 139.439 190.705C145.905 184.29 149.47 175.759 149.513 166.687L149.427 126.384C152.499 128.782 155.871 130.747 159.501 132.281C165.129 134.678 171.1 135.866 177.222 135.866V122.777V117.918C177.244 117.939 177.179 117.939 177.179 117.939Z" fill="#DF2E31"/>
<defs>
<linearGradient id="paint0_linear_1134_336" x1="0" y1="0" x2="263.128" y2="286.369" gradientUnits="userSpaceOnUse">
<stop stop-color="#DF2E31"/>
<stop offset="1" stop-color="#800C0C"/>
</linearGradient>
<linearGradient id="paint1_linear_1134_336" x1="60.9763" y1="96.9231" x2="205.701" y2="196.777" gradientUnits="userSpaceOnUse">
<stop stop-color="#DF2E31" stop-opacity="0.4"/>
<stop offset="1" stop-color="#DF2E31" stop-opacity="0.15"/>
</linearGradient>
</defs>
</svg>
